<?xml version="1.0" encoding="utf-8"?>
<!-- Generator: Adobe Illustrator 23.0.2, SVG Export Plug-In . SVG Version: 6.00 Build 0)  -->
<svg version="1.1" id="レイヤー_1" xmlns="http://www.w3.org/2000/svg" xmlns:xlink="http://www.w3.org/1999/xlink" x="0px"
	 y="0px" viewBox="0 0 432.92 70.43" style="enable-background:new 0 0 432.92 70.43;" xml:space="preserve">
<style type="text/css">
	.st0{fill:#D60000;}
	.st1{fill:#FFFFFF;}
</style>
<g>
	<g>
		<path class="st0" d="M138.46,59.97c0.66,1.66,1.48,3.68,1.48,5.07c0,2.31-3.33,2.71-5.27,2.71v1.82h21.97v-1.82
			c-3.8,0-5.27-2.24-7.74-8.25L123.5,0l-22.96,57.67c-2.86,6.82-4.06,10.08-8.66,10.08v1.82h16.79v-1.82c-2.5,0-5.73-0.5-5.73-3.63
			c0-0.82,0.37-2.11,1.1-3.86l16.51-43.55L138.46,59.97z"/>
		<g>
			<path class="st1" d="M13.5,18.91c0,0,0.38-0.1,2.74-0.1c13.86,0,15.49,6.74,15.49,13.27c0,4.75-1.98,12.38-14.74,12.38
				c-1.27,0-2.54-0.07-3.49-0.15V18.91z M0,69.54h19.43v-1.78h-1.78c-3.34,0-4.15-0.75-4.15-4.6V46.7c6.15,0,6.31,0.44,9.05,4
				L37,69.54h12.01v-1.78c-2.96-0.23-4.43-0.52-7.4-4.38L30.99,49.66c-1.61-2.08-3.18-3.49-4.36-4.46
				c8.9-1.85,13.27-7.63,13.27-14.52c0-11.49-8.83-14.53-18.54-14.53c-3.41,0-21.36,0-21.36,0v1.79h1.78c3.34,0,4.16,0.73,4.16,4.58
				v40.64c0,3.85-0.82,4.6-4.16,4.6H0V69.54z"/>
			<path class="st1" d="M311.49,18.91c0,0,0.37-0.1,2.74-0.1c13.88,0,15.51,6.74,15.51,13.27c0,4.75-2,12.38-14.76,12.38
				c-1.28,0-2.53-0.07-3.49-0.15V18.91z M298,69.54h19.42v-1.78h-1.77c-3.34,0-4.15-0.75-4.15-4.6V46.7c6.17,0,6.3,0.44,9.05,4
				L335,69.54h12v-1.78c-2.97-0.23-4.45-0.52-7.41-4.38l-10.61-13.71c-1.63-2.08-3.18-3.49-4.37-4.46
				c8.9-1.85,13.28-7.63,13.28-14.52c0-11.49-8.83-14.53-18.55-14.53c-3.4,0-21.35,0-21.35,0v1.79h1.76c3.34,0,4.17,0.73,4.17,4.58
				v40.64c0,3.85-0.83,4.6-4.17,4.6H298V69.54z"/>
			<path class="st1" d="M155.48,67.75h1.79c3.34,0,4.14-0.75,4.14-4.6V22.51c0-3.85-0.8-4.58-4.14-4.58h-1.79v-1.79h19.43v1.79
				h-1.77c-3.35,0-4.17,0.73-4.17,4.58V65c0,1.11,0.24,1.42,1.94,1.42h9.63c7.35,0,8.47-0.97,11.57-11.2h1.68l0.02,14.32h-38.33
				V67.75z"/>
			<path class="st1" d="M198.64,67.75h1.77c3.36,0,4.16-0.75,4.16-4.6V22.51c0-3.85-0.8-4.58-4.16-4.58h-1.77v-1.79h38.05
				l-0.07,12.16h-1.85c-1.4-8.91-6.33-9.05-15.67-9.05c-2.9,0-5.19,0.07-6.98,0.22v21.51h8.89c5.34,0,6.76-1.26,7.43-4.75l0.44-2.3
				h1.77v16.31h-1.77c-0.51-6.46-3.42-6.6-9.72-6.6h-7.04v19.5c0,3.85,0.82,4.6,4.15,4.6h1.77v1.78h-19.42V67.75z"/>
			<path class="st1" d="M270.45,66.42c-12.74,0-20.45-13.87-20.45-25.81c0-16.24,10.38-22.68,17.11-22.68
				c14.24,0,19.66,13.85,19.66,23.94C286.78,60.55,278.78,66.42,270.45,66.42z M268.4,70.43c15.48,0,26.53-11.28,26.53-27.59
				c0-15.26-11.12-27.58-26.53-27.58c-15.43,0-26.55,12.31-26.55,27.58C241.85,59.14,252.9,70.43,268.4,70.43z"/>
			<path class="st1" d="M386.43,34.24c-1.09-8.08-7.17-16.31-15.03-16.31c-9.79,0-18.4,6.43-18.4,23.19
				c0,15.66,10.39,24.84,19.44,24.84c6.83,0,13.43-4.16,16.09-8.97l1.78,0.74c-4.16,7.42-11.56,12.69-20.99,12.69
				c-13.42,0-24.47-11.05-24.47-25.44c0-18.83,11.11-29.73,24.68-29.73c2.6,0,4.82,0.36,6.89,0.8c3.27,0.82,5.8,1.8,7.48,1.8
				c1.5,0,2.81-0.46,2.81-0.46l1.51,16.84H386.43z"/>
			<path class="st1" d="M66,40.99h8.9c5.34,0,6.74-1.26,7.4-4.75l0.44-2.3h1.79v16.31h-1.79c-0.51-6.46-3.39-6.6-9.71-6.6H66v19.2
				c0,2.07,0,3.56,2.89,3.56h8.97c7.34,0,11.41-0.78,11.41-9.94h1.85v13.07H52.51v-1.78h1.77c3.34,0,4.15-0.75,4.15-4.6V22.51
				c0-3.85-0.82-4.58-4.15-4.58h-1.77v-1.79h37.22v12.16h-1.82c-1.41-8.91-5.6-9.05-14.95-9.05c-2.88,0-5.19,0.07-6.96,0.22V40.99z"
				/>
			<path class="st1" d="M407.78,40.99h8.9c5.33,0,6.74-1.26,7.41-4.75l0.45-2.3h1.77v16.31h-1.77c-0.53-6.46-3.41-6.6-9.71-6.6
				h-7.05v19.2c0,2.07,0,3.56,2.9,3.56h8.96c7.35,0,11.42-0.78,11.42-9.94h1.86v13.07h-38.64v-1.78h1.77c3.36,0,4.15-0.75,4.15-4.6
				V22.51c0-3.85-0.79-4.58-4.15-4.58h-1.77v-1.79h37.23l-0.02,12.16h-1.81c-1.41-8.91-5.6-9.05-14.94-9.05
				c-2.89,0-5.2,0.07-6.97,0.22V40.99z"/>
		</g>
	</g>
</g>
</svg>
